# xmcd
#
# Track frame offsets: 
#        150
#        23660
#        54100
#        72080
#        101924
#        118991
#        142942
#        155925
#        172561
#        194234
#        211022
#        223645
#
# Disc length: 3273 seconds
#
# Revision: 0
# Processed by: cddbd v1.5.2PL0 Copyright (c) Steve Scherf et al.
# Submitted via: ExactAudioCopyFreeDBPlugin 1.0
#
DISCID=aa0cc70c
DTITLE=Various Artist - Santa's Got Mojo
DYEAR=2002
DGENRE=Holiday
TTITLE0=Mel Brown and The Homewreckers - Don't Plan No Party This Christ
TTITLE0=mas
TTITLE1=Jack de Keyzer - The Twelve Blue Days Of Christmas
TTITLE2=Curley Bridges - White Christmas
TTITLE3=Mark Hummel - Thank You, Santa Claus
TTITLE4=Rick Fines - Country Christmas Blues
TTITLE5=Willie "Big Eyes" Smith - One Day Till Christmas
TTITLE6=Fathead - Tonight Feels Like Christmas
TTITLE7=Morgan Davis - We Need A Fire
TTITLE8=Snooky Pryor - Check It Out, Santa
TTITLE9=Alabama Red - Goin' Home For Christmas
TTITLE10=Mel Brown and The Homewreckers - Winter Wonderland
TTITLE11=Chris Whiteley - The Lonely Shepherd
EXTD=
EXTT0=
EXTT1=
EXTT2=
EXTT3=
EXTT4=
EXTT5=
EXTT6=
EXTT7=
EXTT8=
EXTT9=
EXTT10=
EXTT11=
PLAYORDER=
